<svg id="visual" viewBox="0 0 1920 1080" width="1920" height="1080" xmlns="http://www.w3.org/2000/svg" xmlns:xlink="http://www.w3.org/1999/xlink" version="1.1"><rect x="0" y="0" width="1920" height="1080" fill="#FFFFFF"></rect><defs><linearGradient id="grad1_0" x1="43.8%" y1="0%" x2="100%" y2="100%"><stop offset="14.444444444444446%" stop-color="#008f94" stop-opacity="1"></stop><stop offset="85.55555555555554%" stop-color="#008f94" stop-opacity="1"></stop></linearGradient></defs><defs><linearGradient id="grad1_1" x1="43.8%" y1="0%" x2="100%" y2="100%"><stop offset="14.444444444444446%" stop-color="#008f94" stop-opacity="1"></stop><stop offset="85.55555555555554%" stop-color="#54a5a9" stop-opacity="1"></stop></linearGradient></defs><defs><linearGradient id="grad1_2" x1="43.8%" y1="0%" x2="100%" y2="100%"><stop offset="14.444444444444446%" stop-color="#82bbbe" stop-opacity="1"></stop><stop offset="85.55555555555554%" stop-color="#54a5a9" stop-opacity="1"></stop></linearGradient></defs><defs><linearGradient id="grad1_3" x1="43.8%" y1="0%" x2="100%" y2="100%"><stop offset="14.444444444444446%" stop-color="#82bbbe" stop-opacity="1"></stop><stop offset="85.55555555555554%" stop-color="#add2d3" stop-opacity="1"></stop></linearGradient></defs><defs><linearGradient id="grad1_4" x1="43.8%" y1="0%" x2="100%" y2="100%"><stop offset="14.444444444444446%" stop-color="#d6e8e9" stop-opacity="1"></stop><stop offset="85.55555555555554%" stop-color="#add2d3" stop-opacity="1"></stop></linearGradient></defs><defs><linearGradient id="grad1_5" x1="43.8%" y1="0%" x2="100%" y2="100%"><stop offset="14.444444444444446%" stop-color="#d6e8e9" stop-opacity="1"></stop><stop offset="85.55555555555554%" stop-color="#ffffff" stop-opacity="1"></stop></linearGradient></defs><defs><linearGradient id="grad2_0" x1="0%" y1="0%" x2="56.3%" y2="100%"><stop offset="14.444444444444446%" stop-color="#008f94" stop-opacity="1"></stop><stop offset="85.55555555555554%" stop-color="#008f94" stop-opacity="1"></stop></linearGradient></defs><defs><linearGradient id="grad2_1" x1="0%" y1="0%" x2="56.3%" y2="100%"><stop offset="14.444444444444446%" stop-color="#54a5a9" stop-opacity="1"></stop><stop offset="85.55555555555554%" stop-color="#008f94" stop-opacity="1"></stop></linearGradient></defs><defs><linearGradient id="grad2_2" x1="0%" y1="0%" x2="56.3%" y2="100%"><stop offset="14.444444444444446%" stop-color="#54a5a9" stop-opacity="1"></stop><stop offset="85.55555555555554%" stop-color="#82bbbe" stop-opacity="1"></stop></linearGradient></defs><defs><linearGradient id="grad2_3" x1="0%" y1="0%" x2="56.3%" y2="100%"><stop offset="14.444444444444446%" stop-color="#add2d3" stop-opacity="1"></stop><stop offset="85.55555555555554%" stop-color="#82bbbe" stop-opacity="1"></stop></linearGradient></defs><defs><linearGradient id="grad2_4" x1="0%" y1="0%" x2="56.3%" y2="100%"><stop offset="14.444444444444446%" stop-color="#add2d3" stop-opacity="1"></stop><stop offset="85.55555555555554%" stop-color="#d6e8e9" stop-opacity="1"></stop></linearGradient></defs><defs><linearGradient id="grad2_5" x1="0%" y1="0%" x2="56.3%" y2="100%"><stop offset="14.444444444444446%" stop-color="#ffffff" stop-opacity="1"></stop><stop offset="85.55555555555554%" stop-color="#d6e8e9" stop-opacity="1"></stop></linearGradient></defs><g transform="translate(1920, 0)"><path d="M0 594C-74.4 580.4 -148.8 566.7 -224.3 541.4C-299.7 516.1 -376.3 479.1 -420 420C-463.7 361 -474.5 279.9 -498 206.3C-521.5 132.6 -557.7 66.3 -594 0L0 0Z" fill="#eaf4f4"></path><path d="M0 495C-62 483.6 -124 472.3 -186.9 451.2C-249.8 430.1 -313.6 399.2 -350 350C-386.4 300.8 -395.4 233.3 -415 171.9C-434.6 110.5 -464.8 55.2 -495 0L0 0Z" fill="#c1ddde"></path><path d="M0 396C-49.6 386.9 -99.2 377.8 -149.5 360.9C-199.8 344 -250.9 319.4 -280 280C-309.1 240.7 -316.3 186.6 -332 137.5C-347.7 88.4 -371.8 44.2 -396 0L0 0Z" fill="#98c6c8"></path><path d="M0 297C-37.2 290.2 -74.4 283.4 -112.1 270.7C-149.9 258 -188.2 239.5 -210 210C-231.9 180.5 -237.2 140 -249 103.1C-260.7 66.3 -278.9 33.1 -297 0L0 0Z" fill="#6cb0b3"></path><path d="M0 198C-24.8 193.5 -49.6 188.9 -74.8 180.5C-99.9 172 -125.4 159.7 -140 140C-154.6 120.3 -158.2 93.3 -166 68.8C-173.8 44.2 -185.9 22.1 -198 0L0 0Z" fill="#379a9e"></path><path d="M0 99C-12.4 96.7 -24.8 94.5 -37.4 90.2C-50 86 -62.7 79.8 -70 70C-77.3 60.2 -79.1 46.7 -83 34.4C-86.9 22.1 -93 11 -99 0L0 0Z" fill="#008f94"></path></g><g transform="translate(0, 1080)"><path d="M0 -594C80.5 -578.1 160.9 -562.3 214.7 -518.3C268.4 -474.3 295.5 -402.3 354.3 -354.3C413 -306.3 503.5 -282.3 548.8 -227.3C594 -172.3 594 -86.1 594 0L0 0Z" fill="#eaf4f4"></path><path d="M0 -495C67.1 -481.8 134.1 -468.6 178.9 -431.9C223.7 -395.3 246.2 -335.2 295.2 -295.2C344.2 -255.2 419.6 -235.3 457.3 -189.4C495 -143.6 495 -71.8 495 0L0 0Z" fill="#c1ddde"></path><path d="M0 -396C53.6 -385.4 107.3 -374.8 143.1 -345.5C179 -316.2 197 -268.2 236.2 -236.2C275.4 -204.2 335.7 -188.2 365.9 -151.5C396 -114.9 396 -57.4 396 0L0 0Z" fill="#98c6c8"></path><path d="M0 -297C40.2 -289.1 80.5 -281.1 107.3 -259.1C134.2 -237.2 147.7 -201.1 177.1 -177.1C206.5 -153.1 251.8 -141.2 274.4 -113.7C297 -86.1 297 -43.1 297 0L0 0Z" fill="#6cb0b3"></path><path d="M0 -198C26.8 -192.7 53.6 -187.4 71.6 -172.8C89.5 -158.1 98.5 -134.1 118.1 -118.1C137.7 -102.1 167.8 -94.1 182.9 -75.8C198 -57.4 198 -28.7 198 0L0 0Z" fill="#379a9e"></path><path d="M0 -99C13.4 -96.4 26.8 -93.7 35.8 -86.4C44.7 -79.1 49.2 -67 59 -59C68.8 -51 83.9 -47.1 91.5 -37.9C99 -28.7 99 -14.4 99 0L0 0Z" fill="#008f94"></path></g></svg>