<svg id="visual" viewBox="0 0 540 960" width="540" height="960" xmlns="http://www.w3.org/2000/svg" xmlns:xlink="http://www.w3.org/1999/xlink" version="1.1"><rect x="0" y="0" width="540" height="960" fill="#FFFFFF"></rect><defs><linearGradient id="grad1_0" x1="0%" y1="0%" x2="100%" y2="100%"><stop offset="30%" stop-color="#008f94" stop-opacity="1"></stop><stop offset="70%" stop-color="#008f94" stop-opacity="1"></stop></linearGradient></defs><defs><linearGradient id="grad1_1" x1="0%" y1="0%" x2="100%" y2="100%"><stop offset="30%" stop-color="#008f94" stop-opacity="1"></stop><stop offset="70%" stop-color="#54a5a9" stop-opacity="1"></stop></linearGradient></defs><defs><linearGradient id="grad1_2" x1="0%" y1="0%" x2="100%" y2="100%"><stop offset="30%" stop-color="#82bbbe" stop-opacity="1"></stop><stop offset="70%" stop-color="#54a5a9" stop-opacity="1"></stop></linearGradient></defs><defs><linearGradient id="grad1_3" x1="0%" y1="0%" x2="100%" y2="100%"><stop offset="30%" stop-color="#82bbbe" stop-opacity="1"></stop><stop offset="70%" stop-color="#add2d3" stop-opacity="1"></stop></linearGradient></defs><defs><linearGradient id="grad1_4" x1="0%" y1="0%" x2="100%" y2="100%"><stop offset="30%" stop-color="#d6e8e9" stop-opacity="1"></stop><stop offset="70%" stop-color="#add2d3" stop-opacity="1"></stop></linearGradient></defs><defs><linearGradient id="grad1_5" x1="0%" y1="0%" x2="100%" y2="100%"><stop offset="30%" stop-color="#d6e8e9" stop-opacity="1"></stop><stop offset="70%" stop-color="#ffffff" stop-opacity="1"></stop></linearGradient></defs><defs><linearGradient id="grad2_0" x1="0%" y1="0%" x2="100%" y2="100%"><stop offset="30%" stop-color="#008f94" stop-opacity="1"></stop><stop offset="70%" stop-color="#008f94" stop-opacity="1"></stop></linearGradient></defs><defs><linearGradient id="grad2_1" x1="0%" y1="0%" x2="100%" y2="100%"><stop offset="30%" stop-color="#54a5a9" stop-opacity="1"></stop><stop offset="70%" stop-color="#008f94" stop-opacity="1"></stop></linearGradient></defs><defs><linearGradient id="grad2_2" x1="0%" y1="0%" x2="100%" y2="100%"><stop offset="30%" stop-color="#54a5a9" stop-opacity="1"></stop><stop offset="70%" stop-color="#82bbbe" stop-opacity="1"></stop></linearGradient></defs><defs><linearGradient id="grad2_3" x1="0%" y1="0%" x2="100%" y2="100%"><stop offset="30%" stop-color="#add2d3" stop-opacity="1"></stop><stop offset="70%" stop-color="#82bbbe" stop-opacity="1"></stop></linearGradient></defs><defs><linearGradient id="grad2_4" x1="0%" y1="0%" x2="100%" y2="100%"><stop offset="30%" stop-color="#add2d3" stop-opacity="1"></stop><stop offset="70%" stop-color="#d6e8e9" stop-opacity="1"></stop></linearGradient></defs><defs><linearGradient id="grad2_5" x1="0%" y1="0%" x2="100%" y2="100%"><stop offset="30%" stop-color="#ffffff" stop-opacity="1"></stop><stop offset="70%" stop-color="#d6e8e9" stop-opacity="1"></stop></linearGradient></defs><g transform="translate(540, 0)"><path d="M0 297C-38.4 291.9 -76.7 286.8 -113.3 273.5C-149.8 260.2 -184.6 238.6 -210 210C-235.4 181.4 -251.3 145.6 -264.2 109.4C-277.2 73.3 -287.1 36.6 -297 0L0 0Z" fill="#eaf4f4"></path><path d="M0 247.5C-32 243.2 -63.9 239 -94.4 227.9C-124.9 216.8 -153.9 198.9 -175 175C-196.1 151.2 -209.4 121.4 -220.2 91.2C-231 61 -239.2 30.5 -247.5 0L0 0Z" fill="#c1ddde"></path><path d="M0 198C-25.6 194.6 -51.1 191.2 -75.5 182.3C-99.9 173.4 -123.1 159.1 -140 140C-156.9 120.9 -167.5 97.1 -176.2 73C-184.8 48.8 -191.4 24.4 -198 0L0 0Z" fill="#98c6c8"></path><path d="M0 148.5C-19.2 145.9 -38.4 143.4 -56.6 136.7C-74.9 130.1 -92.3 119.3 -105 105C-117.7 90.7 -125.7 72.8 -132.1 54.7C-138.6 36.6 -143.5 18.3 -148.5 0L0 0Z" fill="#6cb0b3"></path><path d="M0 99C-12.8 97.3 -25.6 95.6 -37.8 91.2C-49.9 86.7 -61.5 79.5 -70 70C-78.5 60.5 -83.8 48.5 -88.1 36.5C-92.4 24.4 -95.7 12.2 -99 0L0 0Z" fill="#379a9e"></path><path d="M0 49.5C-6.4 48.6 -12.8 47.8 -18.9 45.6C-25 43.4 -30.8 39.8 -35 35C-39.2 30.2 -41.9 24.3 -44 18.2C-46.2 12.2 -47.8 6.1 -49.5 0L0 0Z" fill="#008f94"></path></g><g transform="translate(0, 960)"><path d="M0 -297C37 -279.6 74 -262.2 99.1 -239.3C124.3 -216.4 137.6 -188 169 -169C200.4 -150 250 -140.3 274.4 -113.7C298.8 -87 297.9 -43.5 297 0L0 0Z" fill="#eaf4f4"></path><path d="M0 -247.5C30.8 -233 61.6 -218.5 82.6 -199.4C103.5 -180.3 114.6 -156.7 140.8 -140.8C167 -125 208.4 -116.9 228.7 -94.7C249 -72.5 248.2 -36.3 247.5 0L0 0Z" fill="#c1ddde"></path><path d="M0 -198C24.7 -186.4 49.3 -174.8 66.1 -159.5C82.8 -144.3 91.7 -125.4 112.7 -112.7C133.6 -100 166.7 -93.5 182.9 -75.8C199.2 -58 198.6 -29 198 0L0 0Z" fill="#98c6c8"></path><path d="M0 -148.5C18.5 -139.8 37 -131.1 49.6 -119.6C62.1 -108.2 68.8 -94 84.5 -84.5C100.2 -75 125 -70.1 137.2 -56.8C149.4 -43.5 148.9 -21.8 148.5 0L0 0Z" fill="#6cb0b3"></path><path d="M0 -99C12.3 -93.2 24.7 -87.4 33 -79.8C41.4 -72.1 45.9 -62.7 56.3 -56.3C66.8 -50 83.3 -46.8 91.5 -37.9C99.6 -29 99.3 -14.5 99 0L0 0Z" fill="#379a9e"></path><path d="M0 -49.5C6.2 -46.6 12.3 -43.7 16.5 -39.9C20.7 -36.1 22.9 -31.3 28.2 -28.2C33.4 -25 41.7 -23.4 45.7 -18.9C49.8 -14.5 49.6 -7.3 49.5 0L0 0Z" fill="#008f94"></path></g></svg>